<?xml version="1.0" encoding="UTF-8"?>
<svg width="24px" height="24px" viewBox="0 0 24 24" version="1.1" xmlns="http://www.w3.org/2000/svg" xmlns:xlink="http://www.w3.org/1999/xlink">
    <!-- Generator: Sketch 43.2 (39069) - http://www.bohemiancoding.com/sketch -->
    <title>ticket</title>
    <desc>Created with Sketch.</desc>
    <defs></defs>
    <g id="Page-1" stroke="none" stroke-width="1" fill="none" fill-rule="evenodd">
        <g id="Artboard-4" transform="translate(-708.000000, -511.000000)">
            <g id="196" transform="translate(708.000000, 511.000000)">
                <path d="M14.2675644,19 L2.991155,19 C1.89147046,19 1,18.1029399 1,16.9941413 L1,13.7324356 C1.59780137,13.3866262 2,12.7402824 2,12 C2,11.2597176 1.59780137,10.6133738 1,10.2675644 L1,7.00585866 C1,5.89805351 1.88967395,5 2.991155,5 L14.2675644,5 C14.6133738,5.59780137 15.2597176,6 16,6 C16.7402824,6 17.3866262,5.59780137 17.7324356,5 L21.008845,5 C22.1085295,5 23,5.89706013 23,7.00585866 L23,10.2675644 C22.4021986,10.6133738 22,11.2597176 22,12 C22,12.7402824 22.4021986,13.3866262 23,13.7324356 L23,16.9941413 C23,18.1019465 22.1103261,19 21.008845,19 L17.7324356,19 C17.3866262,18.4021986 16.7402824,18 16,18 C15.2597176,18 14.6133738,18.4021986 14.2675644,19 Z" id="Combined-Shape" stroke="#333333" stroke-width="2" stroke-linejoin="round"></path>
                <rect id="Rectangle" fill="#333333" x="15" y="6" width="2" height="3" rx="1"></rect>
                <rect id="Rectangle" fill="#333333" x="15" y="10" width="2" height="4" rx="1"></rect>
                <rect id="Rectangle" fill="#333333" x="15" y="15" width="2" height="3" rx="1"></rect>
                <rect id="Rectangle-133" fill="#333333" opacity="0.5" x="4" y="8" width="8" height="2" rx="1"></rect>
                <rect id="Rectangle-133" fill="#333333" opacity="0.5" x="4" y="11" width="4" height="2" rx="1"></rect>
                <rect id="Rectangle-133" fill="#333333" opacity="0.200000003" x="4" y="15" width="9" height="1" rx="0.5"></rect>
            </g>
        </g>
    </g>
</svg>